Coordinates
version=1
nRows=29
nColumns=22
inDegrees=yes

Units are S.I. units (second, meters, Newtons, ...)
If the header above contains a line with 'inDegrees', this indicates whether rotational values are in degrees (yes) or radians (no).

endheader
time	pelvis_tilt	pelvis_list	pelvis_rotation	pelvis_tx	pelvis_ty	pelvis_tz	hip_flexion_r	hip_adduction_r	hip_rotation_r	knee_angle_r	ankle_angle_r	subtalar_angle_r	hip_flexion_l	hip_adduction_l	hip_rotation_l	knee_angle_l	ankle_angle_l	subtalar_angle_l	lumbar_extension	lumbar_bending	lumbar_rotation
      3.91000000	      5.17515899	     -1.83359087	    -28.61480719	      0.88844939	      0.90769761	      0.55826664	      5.37472214	     -4.59508144	     -7.55588132	    -24.59678341	     19.77336330	     -7.64312944	      4.77026431	      2.89992318	     -7.26314561	    -19.91292397	      9.59571943	     -5.10901475	     -9.64639365	     -2.85713401	      1.47833208
      3.92000000	      5.07675637	     -1.98330601	    -28.55609228	      0.89135213	      0.90788455	      0.56034208	      5.50634184	     -4.01690326	     -6.88216324	    -23.53784085	     19.49148367	     -6.62080579	      4.55626516	      2.66708543	     -7.23428745	    -19.96184796	      9.84362823	     -5.06203748	     -9.67010279	     -2.72907894	      1.38289871
      3.93000000	      5.00302762	     -2.11786995	    -28.49353502	      0.89420539	      0.90807144	      0.56242575	      5.63663730	     -3.48067092	     -6.13861999	    -22.71855308	     19.18924507	     -5.71274764	      4.31390086	      2.45713959	     -7.20397543	    -19.98153592	     10.07410134	     -4.98894939	     -9.68627945	     -2.62090194	      1.28462484
      3.94000000	      4.95564893	     -2.23803424	    -28.41731760	      0.89701931	      0.90825840	      0.56449317	      5.75373617	     -2.99507541	     -5.37891020	    -22.12205686	     18.85607821	     -4.94622908	      4.04688225	      2.27257386	     -7.15713369	    -19.97955817	     10.28711178	     -4.89681490	     -9.70041637	     -2.52919277	      1.19296246
      3.95000000	      4.93551937	     -2.34190764	    -28.32942826	      0.89981923	      0.90843905	      0.56656823	      5.84365998	     -2.56721061	     -4.65804465	    -21.71755710	     18.49405537	     -4.35329235	      3.75938131	      2.11438149	     -7.09720316	    -19.96976578	     10.49095715	     -4.79213447	     -9.70598672	     -2.46219701	      1.11170313
      3.96000000	      4.92220236	     -2.42242799	    -28.22398318	      0.90261645	      0.90858376	      0.56865884	      5.92528150	     -2.19852278	     -4.03183661	    -21.48854714	     18.04555845	     -4.09149193	      3.47420445	      1.97917072	     -7.01669916	    -19.95073320	     10.68701076	     -4.71892334	     -9.67690410	     -2.41468939	      1.01751415
      3.97000000	      4.95161957	     -2.48007220	    -28.09985850	      0.90545068	      0.90872231	      0.57073446	      5.94620322	     -1.91176618	     -3.51542561	    -21.39183948	     17.56806109	     -3.80136915	      3.15648194	      1.88812669	     -6.92768355	    -19.92589159	     10.87453454	     -4.59089887	     -9.65117342	     -2.39813485	      0.92761625
      3.98000000	      4.98270593	     -2.50736441	    -27.95932229	      0.90830527	      0.90880497	      0.57282516	      5.95164372	     -1.69490337	     -3.16172619	    -21.40852307	     17.02600681	     -3.69638745	      2.83823011	      1.83155239	     -6.79341606	    -19.87139806	     11.05173547	     -4.46521839	     -9.58224250	     -2.40762250	      0.83181531
      3.99000000	      5.01045391	     -2.51044244	    -27.81177697	      0.91119198	      0.90882648	      0.57493766	      5.93253845	     -1.53578956	     -2.95591183	    -21.49603902	     16.42924605	     -3.74614677	      2.52282780	      1.79689525	     -6.65057280	    -19.79689229	     11.23428357	     -4.35442851	     -9.46858427	     -2.43178426	      0.74742501
      4.00000000	      5.07314630	     -2.51222907	    -27.64327085	      0.91408860	      0.90884827	      0.57705189	      5.82114729	     -1.42899290	     -2.89900363	    -21.59624029	     15.80679428	     -3.95548435	      2.18527262	      1.77525834	     -6.51727665	    -19.74388451	     11.43566587	     -4.17298047	     -9.37454861	     -2.46940581	      0.64078893
      4.01000000	      5.12579002	     -2.49317621	    -27.47307735	      0.91701841	      0.90881450	      0.57919529	      5.67573875	     -1.36960740	     -2.98907189	    -21.69322758	     15.22486191	     -4.29680276	      1.84912431	      1.76948812	     -6.37751237	    -19.65963515	     11.63386444	     -3.99096742	     -9.23328902	     -2.51721728	      0.55955695
      4.02000000	      5.16061818	     -2.47034097	    -27.30127895	      0.91992792	      0.90872975	      0.58134679	      5.49623359	     -1.32330461	     -3.15515618	    -21.76201653	     14.70543825	     -4.59984537	      1.52671045	      1.76076378	     -6.20836192	    -19.56481464	     11.84263565	     -3.85029759	     -9.05960216	     -2.55296803	      0.48545185
      4.03000000	      5.23101608	     -2.44175307	    -27.13755232	      0.92283673	      0.90867194	      0.58355615	      5.21779760	     -1.32104933	     -3.44329264	    -21.76102759	     14.34574329	     -5.02723898	      1.17205140	      1.76281112	     -6.11602666	    -19.47348520	     12.02665258	     -3.64946137	     -8.90436377	     -2.61813872	      0.45776979
      4.04000000	      5.25909544	     -2.41830620	    -26.96752795	      0.92568876	      0.90855856	      0.58576863	      4.91301425	     -1.29495871	     -3.75207905	    -21.67546848	     14.09437771	     -5.25468409	      0.85866696	      1.73933278	     -5.98012277	    -19.37953241	     12.25196348	     -3.52798791	     -8.70294928	     -2.65049858	      0.41569422
      4.05000000	      5.30556219	     -2.40814313	    -26.81506013	      0.92848272	      0.90848396	      0.58803577	      4.52192221	     -1.26709625	     -4.10140720	    -21.49876241	     13.99237750	     -5.47543796	      0.52259198	      1.70310496	     -5.88606261	    -19.28769828	     12.44054033	     -3.40520949	     -8.52404650	     -2.68574089	      0.41797525
      4.06000000	      5.33938830	     -2.40497408	    -26.67426024	      0.93120344	      0.90841031	      0.59032609	      4.07964019	     -1.22171720	     -4.45054688	    -21.22544714	     14.01045529	     -5.64648163	      0.20573248	      1.64687540	     -5.81723190	    -19.20638504	     12.62268668	     -3.30699032	     -8.33499306	     -2.70631348	      0.45301899
      4.07000000	      5.36347380	     -2.42088368	    -26.55319060	      0.93385254	      0.90835361	      0.59265791	      3.57721740	     -1.14812813	     -4.79941495	    -20.84641919	     14.12777684	     -5.78447601	     -0.10807794	      1.56184422	     -5.76659442	    -19.12616061	     12.78818143	     -3.22660640	     -8.14620994	     -2.70606223	      0.51053637
      4.08000000	      5.37786676	     -2.45067313	    -26.45541607	      0.93642917	      0.90831571	      0.59501978	      3.02358616	     -1.05057715	     -5.13321886	    -20.36511970	     14.29533080	     -5.89533060	     -0.41594076	      1.45461476	     -5.73889410	    -19.04728146	     12.93721022	     -3.15582589	     -7.95647374	     -2.68887954	      0.59518537
      4.09000000	      5.38754245	     -2.49561822	    -26.38488906	      0.93895089	      0.90830579	      0.59741528	      2.41718964	     -0.93248547	     -5.45706647	    -19.78549412	     14.46906464	     -5.98672463	     -0.73659900	      1.32903253	     -5.74070201	    -18.94678483	     13.07455203	     -3.07897974	     -7.76966212	     -2.65528357	      0.70481211
      4.10000000	      5.36789622	     -2.55037239	    -26.34535743	      0.94137219	      0.90825948	      0.59983440	      1.79497064	     -0.78531254	     -5.75503628	    -19.11651838	     14.66575115	     -6.02288436	     -1.00786305	      1.17527760	     -5.77460458	    -18.88997917	     13.23574478	     -3.00641153	     -7.56488918	     -2.60216931	      0.84982821
      4.11000000	      5.33008788	     -2.62026727	    -26.34299633	      0.94370803	      0.90820121	      0.60228241	      1.14818108	     -0.61121900	     -6.02456326	    -18.36567660	     14.83976655	     -6.01674782	     -1.26238409	      0.99735076	     -5.84619831	    -18.84323436	     13.40337206	     -2.93045631	     -7.35511965	     -2.52868197	      1.02497489
      4.12000000	      5.26673593	     -2.69950965	    -26.38065386	      0.94594154	      0.90810749	      0.60476340	      0.49670042	     -0.41306538	     -6.25866115	    -17.54855995	     14.98079454	     -5.96795500	     -1.48683251	      0.79610275	     -5.96013478	    -18.81213595	     13.58258149	     -2.85483920	     -7.13002326	     -2.43782205	      1.23222543
      4.13000000	      5.17814053	     -2.79333883	    -26.45737277	      0.94807701	      0.90797647	      0.60726852	     -0.15906417	     -0.18619990	     -6.45198700	    -16.67237598	     15.08389882	     -5.87700472	     -1.68622771	      0.56927849	     -6.11776779	    -18.79323667	     13.77731226	     -2.78241664	     -6.89370713	     -2.32484701	      1.46110910
      4.14000000	      5.05681769	     -2.89768462	    -26.57324083	      0.95007396	      0.90778774	      0.60979677	     -0.79830955	      0.06861153	     -6.60218182	    -15.75268817	     15.14720131	     -5.75420174	     -1.84313186	      0.31535929	     -6.31304787	    -18.79851560	     13.98980647	     -2.72420346	     -6.64352984	     -2.19390841	      1.71301005
      4.15000000	      4.92240232	     -3.01006435	    -26.72688021	      0.95198669	      0.90756791	      0.61235104	     -1.44046198	      0.33542096	     -6.71488391	    -14.79781838	     15.16634652	     -5.58695603	     -1.99850456	      0.05024669	     -6.55259515	    -18.79080517	     14.21118026	     -2.66887256	     -6.38635488	     -2.05124671	      1.97332796
      4.16000000	      4.76363550	     -3.12693275	    -26.91279073	      0.95375561	      0.90729196	      0.61492473	     -2.06386935	      0.61968591	     -6.78297400	    -13.81687984	     15.15439989	     -5.38831244	     -2.12121859	     -0.23113832	     -6.81921817	    -18.79909663	     14.44274825	     -2.62467798	     -6.12224244	     -1.90256233	      2.24490079
      4.17000000	      4.56460090	     -3.24319971	    -27.12041771	      0.95535585	      0.90693054	      0.61749733	     -2.64614643	      0.92583074	     -6.80402984	    -12.81765064	     15.11547495	     -5.20956567	     -2.17767854	     -0.53296038	     -7.08691693	    -18.84805383	     14.68417560	     -2.60276852	     -5.83689684	     -1.74676475	      2.53026631
      4.18000000	      4.36295763	     -3.35942205	    -27.35976747	      0.95684643	      0.90654926	      0.62011577	     -3.22477848	      1.23184810	     -6.80425741	    -11.80838485	     15.03117034	     -5.00714847	     -2.24497724	     -0.83832413	     -7.40050431	    -18.87230124	     14.94443951	     -2.57780589	     -5.55592876	     -1.59872318	      2.80905976
      4.19000000	      4.15022421	     -3.46868199	    -27.61608614	      0.95820170	      0.90612826	      0.62273242	     -3.78546144	      1.53752665	     -6.77743477	    -10.79006596	     14.92321959	     -4.79917975	     -2.28981627	     -1.14325926	     -7.72287676	    -18.90604659	     15.20740478	     -2.55208234	     -5.27774178	     -1.46232062	      3.08300275
